<?xml version="1.0" encoding="UTF-8"?>
<svg xmlns="http://www.w3.org/2000/svg" width="501.1" height="182.96" viewBox="0 0 501.1 182.96">
  <title>logo</title>
  <path d="M65.35.44C65.68,4.76,61,5.72,61,5.72,27.22,13.53,10.72,45.31,10.72,45.31-22,111,33,151.33,33,151.33c-9.72-50.48-10-76.11-10-76.11-1.75-17.4,7-24.63,7-24.63C34.26,44.74,49.18,40,49.18,40c14-4.08,17-14.08,17-14.08A38.18,38.18,0,0,0,65.35.44Zm97.46,44.87c-16.1-32-53.32-40.91-53.32-40.91-4.31-1.29-2.86-4-2.65-4.36C87.74,30.43,116,38.27,116,38.27c9.54,3.8,21,9.68,21,9.68,14.34,8.18,11.36,23.31,11.36,23.31L137.9,152.65c27.38-17.75,33.21-50.59,33.21-50.59C178.54,70.82,162.81,45.31,162.81,45.31ZM84.58,106s-12-26.31-13.11-38.27c0,0-5.33-19.27,9.61-43.12,0,0,7.61-10.64,8.74-11.87,0,0-30.24,15.39-27.53,55,0,0-.35,19.09,11.36,40,0,0,9.09,19.62,11.8,33.87,0,0,4.72,20.5-10.49,41.35,0,0,22.38-10.91,18.36-43.11C93.32,139.89,91.75,122.47,84.58,106ZM36.07,71.7c3.06,6.71,11.8,55.43,11.8,55.43,3.06,25.41-7.43,44-7.43,44,17.37-18.58,14-38.27,14-38.27A167,167,0,0,0,36.07,71.7Zm93.45-.83A166.31,166.31,0,0,0,119.76,134s-.62,20,19.34,35.89c0,0-13.08-16.9-13.59-42.49C125.51,127.43,127.4,78,129.52,70.87ZM84.34,30.79a3.5,3.5,0,1,0,3.49-3.52A3.5,3.5,0,0,0,84.34,30.79Zm-1,21.12A4.4,4.4,0,1,0,79,47.51,4.38,4.38,0,0,0,83.36,51.91Zm-.77,18a4.4,4.4,0,1,0-4.37-4.39A4.38,4.38,0,0,0,82.59,69.94Zm5.24,18.48A4.4,4.4,0,1,0,83.46,84,4.39,4.39,0,0,0,87.83,88.42ZM98.32,100.3A4.37,4.37,0,1,0,94,104.7,4.39,4.39,0,0,0,98.32,100.3Zm6.12,18a4.37,4.37,0,1,0-4.37,4.4A4.38,4.38,0,0,0,104.44,118.33Zm.38,16.28a4.4,4.4,0,1,0,4.37,4.4A4.39,4.39,0,0,0,104.82,134.61Zm-2.18,18.92a3.52,3.52,0,1,0,3.49,3.52A3.51,3.51,0,0,0,102.64,153.53Z" transform="translate(-0.31 -0.04)" fill="#5886bf" fill-rule="evenodd"></path>
  <path d="M250.86,134.92a8.75,8.75,0,0,1-5.22-1.47A10.37,10.37,0,0,1,242.3,129L211.66,60.1a7.88,7.88,0,0,1-.7-5.17,6,6,0,0,1,2.47-3.53,8.94,8.94,0,0,1,9.56.17A11.46,11.46,0,0,1,225.87,56l27.81,64.58h-5.05l27.7-64.7a12.14,12.14,0,0,1,3.05-4.3,7.49,7.49,0,0,1,4.93-1.47,6.93,6.93,0,0,1,4.29,1.3,5.8,5.8,0,0,1,2.17,3.53A8.58,8.58,0,0,1,290,60.1L259.31,129a10.86,10.86,0,0,1-3.22,4.41A8.46,8.46,0,0,1,250.86,134.92Z" transform="translate(-0.31 -0.04)" fill="#222"></path>
  <path d="M311.37,135.16a24.77,24.77,0,0,1-11.09-2.41,19.26,19.26,0,0,1-7.63-6.53,16.32,16.32,0,0,1-2.76-9.3q0-6.35,3.29-10t10.68-5.36q7.39-1.64,19.83-1.64h5.87v8.47h-5.75a76,76,0,0,0-11.62.7c-2.89.47-4.95,1.28-6.16,2.41a6.24,6.24,0,0,0-1.82,4.77,8.22,8.22,0,0,0,2.7,6.35q2.7,2.48,7.51,2.47a13,13,0,0,0,6.87-1.82,13.28,13.28,0,0,0,4.75-5,14.85,14.85,0,0,0,1.76-7.3V97.4q0-5.9-2.58-8.47t-8.69-2.59a35.75,35.75,0,0,0-7.33.82A39.13,39.13,0,0,0,300.93,90a5.61,5.61,0,0,1-3.94.59,4.44,4.44,0,0,1-2.64-1.94,5.94,5.94,0,0,1-.94-3.23,7.16,7.16,0,0,1,.94-3.47,5.67,5.67,0,0,1,3.17-2.53,53,53,0,0,1,10.39-3.18,49.07,49.07,0,0,1,9.09-.94q8.46,0,13.91,2.59a17.17,17.17,0,0,1,8.16,7.82q2.7,5.24,2.7,13.47v28.23A8,8,0,0,1,340,133a6.46,6.46,0,0,1-5.05,1.94,6.62,6.62,0,0,1-5.1-1.94,7.82,7.82,0,0,1-1.82-5.59v-5.64H329a15.85,15.85,0,0,1-9.27,11.76A19.94,19.94,0,0,1,311.37,135.16Z" transform="translate(-0.31 -0.04)" fill="#222"></path>
  <path d="M361.44,64.69a9.16,9.16,0,0,1-6.39-2.06,7.25,7.25,0,0,1-2.29-5.7,7.25,7.25,0,0,1,2.29-5.77,9.39,9.39,0,0,1,6.39-2q4.23,0,6.46,2a7.39,7.39,0,0,1,2.23,5.77,7.39,7.39,0,0,1-2.23,5.7C366.41,64,364.26,64.69,361.44,64.69Zm0,70.12a6.87,6.87,0,0,1-5.4-2.12,8.56,8.56,0,0,1-1.87-5.88V83.63A8.52,8.52,0,0,1,356,77.69a7,7,0,0,1,5.4-2.06,7.14,7.14,0,0,1,5.46,2.06,8.35,8.35,0,0,1,1.94,5.94v43.18a8.56,8.56,0,0,1-1.88,5.88A7,7,0,0,1,361.44,134.81Z" transform="translate(-0.31 -0.04)" fill="#222"></path>
  <path d="M404.06,135.16A23.31,23.31,0,0,1,382,121.1a37.28,37.28,0,0,1-3.17-15.94A36.78,36.78,0,0,1,382,89.22a24.24,24.24,0,0,1,8.86-10.29,24,24,0,0,1,13.2-3.65,22.15,22.15,0,0,1,12.5,3.53,17.36,17.36,0,0,1,7.22,9.29h-1.29V57.51A7.49,7.49,0,0,1,424.37,52a7.28,7.28,0,0,1,5.4-1.89A7.48,7.48,0,0,1,435.22,52a7.35,7.35,0,0,1,1.94,5.52v69.88a7.71,7.71,0,0,1-1.88,5.59,8.49,8.49,0,0,1-10.8,0,7.71,7.71,0,0,1-1.87-5.59v-9.17l1.29,3.53a17.23,17.23,0,0,1-7.16,9.76A22.13,22.13,0,0,1,404.06,135.16ZM408.17,124a13.15,13.15,0,0,0,12.74-8.41,26.15,26.15,0,0,0,1.81-10.41q0-9.41-4-14.06a13.23,13.23,0,0,0-10.56-4.65,14.1,14.1,0,0,0-7.63,2.06,13.45,13.45,0,0,0-5.1,6.24,26,26,0,0,0-1.82,10.41q0,9.3,4,14.06A13.11,13.11,0,0,0,408.17,124Z" transform="translate(-0.31 -0.04)" fill="#222"></path>
  <path d="M464.12,156.1a6.42,6.42,0,0,1-4.22-1.35,5.4,5.4,0,0,1-1.94-3.59,8.93,8.93,0,0,1,.76-4.71l8-17.76v6.12L445.34,85.28a9.06,9.06,0,0,1-.7-4.82,5.38,5.38,0,0,1,2.17-3.59,8.21,8.21,0,0,1,5-1.36,7.05,7.05,0,0,1,4.34,1.24,10.3,10.3,0,0,1,2.94,4.65L474.92,121H471.4l16.19-39.76a9.71,9.71,0,0,1,3.06-4.53,8,8,0,0,1,4.69-1.24,6,6,0,0,1,4.11,1.36,5.81,5.81,0,0,1,1.88,3.53,8.33,8.33,0,0,1-.82,4.76L472,150.45a10.64,10.64,0,0,1-3.29,4.47A8,8,0,0,1,464.12,156.1Z" transform="translate(-0.31 -0.04)" fill="#222"></path>
</svg>
